<svg xmlns="http://www.w3.org/2000/svg" version="1.1" xmlns:xlink="http://www.w3.org/1999/xlink" xmlns:svgjs="http://svgjs.dev/svgjs" width="2000" height="404" viewBox="0 0 2000 404"><g transform="matrix(1,0,0,1,-1.2121212121212466,-0.905953386251781)"><svg viewBox="0 0 396 80" data-background-color="#ffffff" preserveAspectRatio="xMidYMid meet" height="404" width="2000" xmlns="http://www.w3.org/2000/svg" xmlns:xlink="http://www.w3.org/1999/xlink"><g id="tight-bounds" transform="matrix(1,0,0,1,0.2400000000000091,0.1793967101488647)"><svg viewBox="0 0 395.52 79.6412065797023" height="79.6412065797023" width="395.52"><g><svg viewBox="0 0 565.6859944909237 113.90552979999998" height="79.6412065797023" width="395.52"><g><svg viewBox="0 0 565.6859944909237 113.90552979999998" height="113.90552979999998" width="565.6859944909237"><g id="textblocktransform"><svg viewBox="0 0 565.6859944909237 113.90552979999998" height="113.90552979999998" width="565.6859944909237" id="textblock"><g><svg viewBox="0 0 565.6859944909237 80.98089999999999" height="80.98089999999999" width="565.6859944909237"><g><svg><g></g><g></g></svg></g><g><svg><g><svg></svg></g><g></g></svg></g><g id="text-0"><svg viewBox="0 0 565.6859944909237 80.98089999999999" height="80.98089999999999" width="565.6859944909237"><g transform="matrix(1,0,0,1,0,15.465449999999997)"><svg width="257.55" viewBox="3.55 -37.9 257.52 38.55" height="38.55" data-palette-color="#202046"><path d="M3.55 0L5.35-34.1 10.7-34.1 18.4-13.8Q19.05-12.05 19.6-10.58 20.15-9.1 20.55-7.95L20.55-7.95Q21.05-6.65 21.4-5.55L21.4-5.55 21.5-5.55Q21.8-6.65 22.25-7.95L22.25-7.95Q22.65-9.1 23.15-10.58 23.65-12.05 24.35-13.8L24.35-13.8 32.2-34.1 37.55-34.1 39.3 0 35.05 0 34.2-18.75Q34.1-21.2 34.05-22.9 34-24.6 34-25.7L34-25.7 34-27.8 33.9-27.8Q33.6-27.05 33.15-25.75L33.15-25.75Q32.75-24.65 32.13-22.93 31.5-21.2 30.6-18.75L30.6-18.75 23.55 0 19.3 0 12.2-18.75Q11.25-21.15 10.65-22.88 10.05-24.6 9.65-25.7L9.65-25.7Q9.2-27 8.95-27.8L8.95-27.8 8.85-27.8Q8.9-27 8.95-25.7L8.95-25.7Q9-23.6 8.8-18.75L8.8-18.75 7.8 0 3.55 0ZM49-12.45L49-12.45Q49-7.6 51.17-5.23 53.35-2.85 57.05-2.85L57.05-2.85Q60.7-2.85 62.75-5.2 64.8-7.55 64.8-12.25L64.8-12.25Q64.8-17.25 62.62-19.7 60.45-22.15 56.7-22.15L56.7-22.15Q52.95-22.15 50.97-19.73 49-17.3 49-12.45ZM44.75-12.5L44.75-12.5Q44.75-16.3 45.95-18.82 47.15-21.35 49-22.88 50.85-24.4 52.97-25.03 55.1-25.65 57-25.65L57-25.65Q58.8-25.65 60.92-25.08 63.05-24.5 64.85-23.03 66.65-21.55 67.85-19.07 69.05-16.6 69.05-12.8L69.05-12.8Q69.05-8.85 67.82-6.25 66.6-3.65 64.75-2.13 62.9-0.6 60.75 0.03 58.6 0.65 56.75 0.65L56.75 0.65Q54.85 0.65 52.75 0.05 50.65-0.55 48.87-2.02 47.1-3.5 45.92-6.05 44.75-8.6 44.75-12.5ZM80.8 0L71.55-25.15 75.95-25.15 82.05-7.4 83.15-3.45 83.2-3.45 84.34-7.4 90.84-25.15 95.05-25.15 85.3 0 80.8 0ZM99.09 0L99.09-25.2 103.09-25.65 103.09 0 99.09 0ZM98.44-32.35L98.44-32.35Q98.44-33.5 99.22-34.27 99.99-35.05 101.14-35.05L101.14-35.05Q102.34-35.05 103.17-34.27 103.99-33.5 103.99-32.35L103.99-32.35Q103.99-31.2 103.17-30.43 102.34-29.65 101.14-29.65L101.14-29.65Q99.99-29.65 99.22-30.43 98.44-31.2 98.44-32.35ZM128.14-3.95L128.89-0.6Q127.74-0.25 126.52 0 125.29 0.25 123.82 0.45 122.34 0.65 120.74 0.65L120.74 0.65Q118.24 0.65 116.09-0.05 113.94-0.75 112.34-2.3 110.74-3.85 109.82-6.33 108.89-8.8 108.89-12.4L108.89-12.4Q108.89-15.65 109.79-18.13 110.69-20.6 112.27-22.28 113.84-23.95 115.97-24.8 118.09-25.65 120.59-25.65L120.59-25.65Q123.04-25.65 124.84-24.7 126.64-23.75 127.82-22.13 128.99-20.5 129.56-18.32 130.14-16.15 130.14-13.75L130.14-13.75 129.39-11.55 113.24-11.55Q113.24-10 113.64-8.45 114.04-6.9 115.02-5.65 115.99-4.4 117.57-3.63 119.14-2.85 121.49-2.85L121.49-2.85Q122.99-2.85 124.24-3.03 125.49-3.2 126.42-3.43 127.34-3.65 128.14-3.95L128.14-3.95ZM113.39-14.75L125.99-14.75Q125.99-15.1 125.84-16.3 125.69-17.5 125.14-18.8 124.59-20.1 123.44-21.13 122.29-22.15 120.39-22.15L120.39-22.15Q118.29-22.15 116.94-21.28 115.59-20.4 114.79-19.2 113.99-18 113.69-16.75 113.39-15.5 113.39-14.75L113.39-14.75ZM148.88-32.15L152.88-32.65 152.88-25.15 160.13-25.15 160.13-21.9 152.88-21.9 152.88-8.55Q152.88-6.9 152.96-5.8 153.03-4.7 153.28-4.05 153.53-3.4 153.99-3.13 154.44-2.85 155.13-2.85L155.13-2.85Q157.03-2.9 159.53-4.25L159.53-4.25 160.74-1.2Q159.09-0.1 157.66 0.28 156.24 0.65 154.84 0.65L154.84 0.65Q151.53 0.65 150.21-1.23 148.88-3.1 148.88-7.45L148.88-7.45 148.88-21.9 144.28-21.9 144.28-25.15 148.88-25.15 148.88-32.15ZM165.23 0L165.23-25.2 169.23-25.65 169.23 0 165.23 0ZM164.58-32.35L164.58-32.35Q164.58-33.5 165.36-34.27 166.13-35.05 167.28-35.05L167.28-35.05Q168.48-35.05 169.31-34.27 170.13-33.5 170.13-32.35L170.13-32.35Q170.13-31.2 169.31-30.43 168.48-29.65 167.28-29.65L167.28-29.65Q166.13-29.65 165.36-30.43 164.58-31.2 164.58-32.35ZM192.83-24.85L192.03-21.5Q191.18-21.7 189.68-21.93 188.18-22.15 186.63-22.15L186.63-22.15Q184.38-22.15 182.95-21.25 181.53-20.35 180.73-18.93 179.93-17.5 179.63-15.78 179.33-14.05 179.33-12.4L179.33-12.4Q179.33-9.85 179.98-8.03 180.63-6.2 181.7-5.05 182.78-3.9 184.18-3.38 185.58-2.85 187.13-2.85L187.13-2.85Q188.18-2.85 189.15-2.98 190.13-3.1 190.95-3.28 191.78-3.45 192.53-3.7L192.53-3.7 193.33-0.35Q192.28-0.05 191.38 0.15 190.48 0.35 189.25 0.5 188.03 0.65 186.63 0.65L186.63 0.65Q183.88 0.65 181.73-0.05 179.58-0.75 178.1-2.3 176.63-3.85 175.85-6.35 175.08-8.85 175.08-12.45L175.08-12.45Q175.08-15.95 176.05-18.48 177.03-21 178.63-22.58 180.23-24.15 182.3-24.9 184.38-25.65 186.63-25.65L186.63-25.65Q187.83-25.65 188.95-25.53 190.08-25.4 190.93-25.25L190.93-25.25Q191.93-25.05 192.83-24.85L192.83-24.85ZM198.28 0L198.28-37.45 202.28-37.9 202.28-15.35 213.43-25.15 218.93-25.15 208.03-15.6 219.33 0 214.28 0 205.08-13.05 202.28-10.6 202.28 0 198.28 0ZM239.93-3.95L240.68-0.6Q239.53-0.25 238.3 0 237.07 0.25 235.6 0.45 234.13 0.65 232.53 0.65L232.53 0.65Q230.03 0.65 227.88-0.05 225.72-0.75 224.13-2.3 222.53-3.85 221.6-6.33 220.67-8.8 220.67-12.4L220.67-12.4Q220.67-15.65 221.57-18.13 222.47-20.6 224.05-22.28 225.63-23.95 227.75-24.8 229.88-25.65 232.38-25.65L232.38-25.65Q234.82-25.65 236.63-24.7 238.43-23.75 239.6-22.13 240.78-20.5 241.35-18.32 241.93-16.15 241.93-13.75L241.93-13.75 241.18-11.55 225.03-11.55Q225.03-10 225.42-8.45 225.82-6.9 226.8-5.65 227.78-4.4 229.35-3.63 230.92-2.85 233.28-2.85L233.28-2.85Q234.78-2.85 236.03-3.03 237.28-3.2 238.2-3.43 239.13-3.65 239.93-3.95L239.93-3.95ZM225.17-14.75L237.78-14.75Q237.78-15.1 237.63-16.3 237.47-17.5 236.92-18.8 236.38-20.1 235.22-21.13 234.07-22.15 232.17-22.15L232.17-22.15Q230.07-22.15 228.72-21.28 227.38-20.4 226.57-19.2 225.78-18 225.47-16.75 225.17-15.5 225.17-14.75L225.17-14.75ZM249.22-32.15L253.22-32.65 253.22-25.15 260.47-25.15 260.47-21.9 253.22-21.9 253.22-8.55Q253.22-6.9 253.3-5.8 253.37-4.7 253.62-4.05 253.87-3.4 254.32-3.13 254.77-2.85 255.47-2.85L255.47-2.85Q257.37-2.9 259.87-4.25L259.87-4.25 261.07-1.2Q259.42-0.1 258 0.28 256.57 0.65 255.17 0.65L255.17 0.65Q251.87 0.65 250.55-1.23 249.22-3.1 249.22-7.45L249.22-7.45 249.22-21.9 244.62-21.9 244.62-25.15 249.22-25.15 249.22-32.15Z" opacity="1" transform="matrix(1,0,0,1,0,0)" fill="#202046" class="undefined-yy-0"></path></svg></g><g><svg xmlns="http://www.w3.org/2000/svg" xmlns:xlink="http://www.w3.org/1999/xlink" version="1.1" x="276.6691" y="0" viewBox="5.102 14.441 89.79599999999999 71.119" enable-background="new 0 0 100 100" xml:space="preserve" height="80.98089999999999" width="102.24779449092365" class="icon-cg-0" data-fill-palette-color="accent" id="cg-0"><path d="M76.075 14.441v5.246H26.234v-5.246H5.102v71.119h21.132v-5.028h49.841v5.028h18.823V14.441H76.075zM17.927 79.584h-4.372v-4.372h4.372V79.584zM17.927 70.476h-4.372v-4.372h4.372V70.476zM17.927 61.367h-4.372v-4.372h4.372V61.367zM17.927 52.259h-4.372v-4.372h4.372V52.259zM17.927 43.15h-4.372v-4.372h4.372V43.15zM17.927 34.042h-4.372V29.67h4.372V34.042zM17.927 24.934h-4.372v-4.372h4.372V24.934zM76.075 74.338H26.234v-48.53h49.841V74.338zM88.098 79.584h-4.372v-4.372h4.372V79.584zM88.098 70.476h-4.372v-4.372h4.372V70.476zM88.098 61.367h-4.372v-4.372h4.372V61.367zM88.098 52.259h-4.372v-4.372h4.372V52.259zM88.098 43.15h-4.372v-4.372h4.372V43.15zM88.098 34.042h-4.372V29.67h4.372V34.042zM88.098 24.934h-4.372v-4.372h4.372V24.934z" fill="#fe633d" data-fill-palette-color="accent"></path></svg></g><g transform="matrix(1,0,0,1,398.03599449092366,15.465449999999997)"><svg width="167.64999999999998" viewBox="3.55 -37.9 167.64 50.05" height="50.05" data-palette-color="#202046"><path d="M3.55-1.5L3.55-37.45 7.55-37.9 7.55-23Q8.65-23.75 9.85-24.3L9.85-24.3Q10.85-24.8 12.1-25.23 13.35-25.65 14.6-25.65L14.6-25.65Q16.65-25.65 18.48-24.85 20.3-24.05 21.68-22.45 23.05-20.85 23.85-18.4 24.65-15.95 24.65-12.6L24.65-12.6Q24.65-8.9 23.63-6.38 22.6-3.85 20.88-2.3 19.15-0.75 16.95-0.05 14.75 0.65 12.45 0.65L12.45 0.65Q10.15 0.65 8.47 0.33 6.8 0 5.7-0.4L5.7-0.4Q4.4-0.9 3.55-1.5L3.55-1.5ZM7.55-19.4L7.55-3.7Q8.2-3.45 8.95-3.28 9.7-3.1 10.58-2.98 11.45-2.85 12.45-2.85L12.45-2.85Q14.75-2.85 16.3-3.5 17.85-4.15 18.75-5.4 19.65-6.65 20.03-8.43 20.4-10.2 20.4-12.4L20.4-12.4Q20.4-14.15 20.03-15.9 19.65-17.65 18.85-19.03 18.05-20.4 16.88-21.28 15.7-22.15 14.15-22.15L14.15-22.15Q13.1-22.15 11.95-21.73 10.8-21.3 9.8-20.75L9.8-20.75Q8.65-20.15 7.55-19.4L7.55-19.4ZM33.35-12.45L33.35-12.45Q33.35-7.6 35.52-5.23 37.7-2.85 41.4-2.85L41.4-2.85Q45.05-2.85 47.1-5.2 49.15-7.55 49.15-12.25L49.15-12.25Q49.15-17.25 46.97-19.7 44.8-22.15 41.05-22.15L41.05-22.15Q37.3-22.15 35.32-19.73 33.35-17.3 33.35-12.45ZM29.1-12.5L29.1-12.5Q29.1-16.3 30.3-18.82 31.5-21.35 33.35-22.88 35.2-24.4 37.32-25.03 39.45-25.65 41.35-25.65L41.35-25.65Q43.15-25.65 45.27-25.08 47.4-24.5 49.2-23.03 51-21.55 52.2-19.07 53.4-16.6 53.4-12.8L53.4-12.8Q53.4-8.85 52.17-6.25 50.95-3.65 49.1-2.13 47.25-0.6 45.1 0.03 42.95 0.65 41.1 0.65L41.1 0.65Q39.2 0.65 37.1 0.05 35-0.55 33.22-2.02 31.45-3.5 30.27-6.05 29.1-8.6 29.1-12.5ZM62.05-12.45L62.05-12.45Q62.05-7.6 64.22-5.23 66.4-2.85 70.09-2.85L70.09-2.85Q73.75-2.85 75.8-5.2 77.84-7.55 77.84-12.25L77.84-12.25Q77.84-17.25 75.67-19.7 73.5-22.15 69.75-22.15L69.75-22.15Q66-22.15 64.02-19.73 62.05-17.3 62.05-12.45ZM57.8-12.5L57.8-12.5Q57.8-16.3 59-18.82 60.2-21.35 62.05-22.88 63.9-24.4 66.02-25.03 68.15-25.65 70.05-25.65L70.05-25.65Q71.84-25.65 73.97-25.08 76.09-24.5 77.9-23.03 79.7-21.55 80.9-19.07 82.09-16.6 82.09-12.8L82.09-12.8Q82.09-8.85 80.87-6.25 79.65-3.65 77.8-2.13 75.95-0.6 73.8 0.03 71.65 0.65 69.8 0.65L69.8 0.65Q67.9 0.65 65.8 0.05 63.7-0.55 61.92-2.02 60.15-3.5 58.97-6.05 57.8-8.6 57.8-12.5ZM87.89 0L87.89-37.45 91.89-37.9 91.89-15.35 103.04-25.15 108.54-25.15 97.64-15.6 108.94 0 103.89 0 94.69-13.05 91.89-10.6 91.89 0 87.89 0ZM112.94 0L112.94-25.2 116.94-25.65 116.94 0 112.94 0ZM112.29-32.35L112.29-32.35Q112.29-33.5 113.07-34.27 113.84-35.05 114.99-35.05L114.99-35.05Q116.19-35.05 117.02-34.27 117.84-33.5 117.84-32.35L117.84-32.35Q117.84-31.2 117.02-30.43 116.19-29.65 114.99-29.65L114.99-29.65Q113.84-29.65 113.07-30.43 112.29-31.2 112.29-32.35ZM124.19 0L124.19-20.15Q124.24-21.2 123.94-24.7L123.94-24.7 127.64-25.2 128.19-22Q129.69-23 131.16-23.75 132.64-24.5 134.19-25.08 135.74-25.65 137.19-25.65L137.19-25.65Q139.24-25.65 140.61-25.18 141.99-24.7 142.84-23.6 143.69-22.5 144.06-20.7 144.44-18.9 144.44-16.2L144.44-16.2 144.44 0 140.44 0 140.44-15.75Q140.44-17.25 140.39-18.43 140.34-19.6 139.96-20.43 139.59-21.25 138.81-21.7 138.04-22.15 136.64-22.15L136.64-22.15Q135.34-22.15 133.89-21.58 132.44-21 131.04-20.25 129.64-19.5 128.19-18.5L128.19-18.5 128.19 0 124.19 0ZM171.19-24.55L171.19 2.4Q171.19 4.25 170.79 6 170.39 7.75 169.26 9.13 168.14 10.5 166.11 11.33 164.09 12.15 160.79 12.15L160.79 12.15Q158.69 12.1 157.14 11.9 155.59 11.7 154.19 11.33 152.79 10.95 151.64 10.45L151.64 10.45 152.69 6.95Q154.64 7.8 156.66 8.25 158.69 8.7 160.29 8.7L160.29 8.7Q162.04 8.7 163.34 8.35 164.64 8 165.51 7.18 166.39 6.35 166.81 5 167.24 3.65 167.24 1.65L167.24 1.65 167.24-2Q166.19-1.3 165.06-0.73 163.94-0.15 162.66 0.25 161.39 0.65 160.19 0.65L160.19 0.65Q155.54 0.65 152.84-2.63 150.14-5.9 150.14-12.4L150.14-12.4Q150.14-16.15 151.31-18.68 152.49-21.2 154.29-22.75 156.09-24.3 158.24-24.98 160.39-25.65 162.34-25.65L162.34-25.65Q164.89-25.65 167.01-25.23 169.14-24.8 171.19-24.55L171.19-24.55ZM160.64-2.85L160.64-2.85Q161.74-2.85 162.89-3.25 164.04-3.65 165.11-4.2 166.19-4.75 167.24-5.5L167.24-5.5 167.24-21.45Q166.64-21.6 165.84-21.8L165.84-21.8Q165.14-21.9 164.24-22.03 163.34-22.15 162.34-22.15L162.34-22.15Q160.24-22.15 158.74-21.4 157.24-20.65 156.26-19.35 155.29-18.05 154.84-16.3 154.39-14.55 154.39-12.6L154.39-12.6Q154.39-10.85 154.76-9.1 155.14-7.35 155.94-5.95 156.74-4.55 157.89-3.7 159.04-2.85 160.64-2.85Z" opacity="1" transform="matrix(1,0,0,1,0,0)" fill="#202046" class="undefined-yy-1"></path></svg></g></svg></g></svg></g><g transform="matrix(1,0,0,1,146.3290597977631,90.08162979999999)"><svg viewBox="0 0 273.0278748953975 23.8239" height="23.8239" width="273.0278748953975"><g transform="matrix(1,0,0,1,0,0)"><svg width="273.0278748953975" viewBox="2.25 -34 547.73 47.800000000000004" height="23.8239" data-palette-color="#3886ce"><path d="M14.4 0.65L14.4 0.65Q10.95 0.65 8.2-0.9 5.45-2.45 3.85-5.4 2.25-8.35 2.25-12.55L2.25-12.55Q2.25-16.35 3.53-19.88 4.8-23.4 7.15-26.23 9.5-29.05 12.85-30.7 16.2-32.35 20.3-32.35L20.3-32.35Q23.3-32.35 25.3-31.4 27.3-30.45 27.3-28.6L27.3-28.6Q27.3-27.7 26.83-26.83 26.35-25.95 25.6-25.35 24.85-24.75 24.05-24.75L24.05-24.75Q23.55-24.75 23.25-25L23.25-25Q20.65-26.75 17.35-26.75L17.35-26.75Q13.85-26.75 11.45-25.13 9.05-23.5 7.83-20.85 6.6-18.2 6.6-15.1L6.6-15.1Q6.6-10.45 9.22-7.7 11.85-4.95 16.25-4.95L16.25-4.95Q18.15-4.95 19.8-5.5 21.45-6.05 22.5-7.1 23.55-8.15 23.55-9.65L23.55-9.65Q23.55-11.15 22.65-11.95 21.75-12.75 20.3-13.13 18.85-13.5 17.15-13.6L17.15-13.6Q15.95-13.7 15.38-13.9 14.8-14.1 14.8-15.1L14.8-15.1Q14.8-16.3 15.55-17.1 16.3-17.9 17.4-18L17.4-18Q18.9-18.15 21-18.23 23.1-18.3 25.38-18.32 27.65-18.35 29.65-18.35L29.65-18.35Q30.3-18.35 30.65-18.13 31-17.9 31-17.2L31-17.2Q31-16.35 30.63-15.35 30.25-14.35 29.6-13.65 28.95-12.95 28.1-12.95L28.1-12.95 27.3-12.95Q27.45-12.45 27.58-11.83 27.7-11.2 27.7-10.4L27.7-10.4Q27.7-8.2 26.65-6.23 25.6-4.25 23.75-2.7 21.9-1.15 19.5-0.25 17.1 0.65 14.4 0.65ZM41.85 0.65L41.85 0.65Q38.4 0.65 36.32-1.23 34.25-3.1 34.25-6.75L34.25-6.75Q34.25-8.45 34.72-10.05 35.2-11.65 36-13.05L36-13.05Q35.2-12.55 34.8-12.55L34.8-12.55Q34.2-12.55 33.97-13.23 33.75-13.9 33.75-14.55L33.75-14.55Q33.75-15.7 34.22-16.38 34.7-17.05 35.15-17.4L35.15-17.4Q36.2-18.3 38.45-19.38 40.7-20.45 43.85-20.45L43.85-20.45Q48.15-20.45 50.52-18.05 52.9-15.65 52.9-11.35L52.9-11.35Q52.9-8 51.5-5.28 50.1-2.55 47.62-0.95 45.15 0.65 41.85 0.65ZM43.4-4.45L43.4-4.45Q45.9-4.45 47.62-6.03 49.35-7.6 49.35-10.2L49.35-10.2Q49.35-12.9 47.6-14.05 45.85-15.2 43.55-15.2L43.55-15.2Q42.5-15.2 41.65-15 40.8-14.8 40.05-14.5L40.05-14.5Q39.35-13.5 38.8-12.25 38.25-11 38.25-9.5L38.25-9.5Q38.25-7 39.75-5.73 41.25-4.45 43.4-4.45ZM90.24 13.8L90.24 13.8Q86.49 13.8 84.29 12.25 82.09 10.7 82.09 8.25L82.09 8.25Q82.09 6.45 83.22 5.05 84.34 3.65 86.19 3.65L86.19 3.65Q87.24 3.65 87.24 4.25L87.24 4.25Q87.24 4.6 87.12 5.05 86.99 5.5 86.99 5.95L86.99 5.95Q86.99 7.35 88.59 8.03 90.19 8.7 92.44 8.7L92.44 8.7Q93.84 8.7 95.29 8.4 96.74 8.1 97.72 7.48 98.69 6.85 98.69 5.8L98.69 5.8Q98.69 4.65 97.54 4.1 96.39 3.55 94.64 3.28 92.89 3 91.07 2.78 89.24 2.55 87.94 2.05L87.94 2.05Q86.29 1.5 85.49 0.7 84.69-0.1 84.69-1.35L84.69-1.35Q84.69-3.7 87.54-5.1L87.54-5.1Q85.89-5.95 85.07-7.5 84.24-9.05 84.24-10.95L84.24-10.95Q84.24-13.4 85.52-15.55 86.79-17.7 89.32-19.07 91.84-20.45 95.64-20.45L95.64-20.45Q97.34-20.45 99.09-20.13 100.84-19.8 102.02-18.93 103.19-18.05 103.19-16.4L103.19-16.4Q103.19-15.8 102.94-15.08 102.69-14.35 101.99-14.35L101.99-14.35Q101.69-14.35 101.19-14.48 100.69-14.6 100.29-14.7L100.29-14.7Q100.39-14.2 100.47-13.6 100.54-13 100.54-12.35L100.54-12.35Q100.54-9.4 98.54-7.03 96.54-4.65 92.69-4.2L92.69-4.2Q91.29-4.1 90.62-3.88 89.94-3.65 89.94-3.1L89.94-3.1Q89.94-2.6 90.54-2.38 91.14-2.15 92.09-2.05L92.09-2.05Q95.14-1.8 97.49-1.2 99.84-0.6 101.17 0.73 102.49 2.05 102.49 4.5L102.49 4.5Q102.49 7.35 100.82 9.43 99.14 11.5 96.34 12.65 93.54 13.8 90.24 13.8ZM92.14-8.55L92.14-8.55Q94.44-8.55 95.74-9.8 97.04-11.05 97.04-13.05L97.04-13.05Q97.04-13.6 96.94-14.18 96.84-14.75 96.74-15.15L96.74-15.15Q95.94-15.4 95.19-15.48 94.44-15.55 93.74-15.55L93.74-15.55Q91.09-15.55 89.59-14.55 88.09-13.55 88.09-11.8L88.09-11.8Q88.09-10.25 89.19-9.4 90.29-8.55 92.14-8.55ZM113.84 0.65L113.84 0.65Q110.04 0.65 107.91-1.53 105.79-3.7 105.79-7.6L105.79-7.6Q105.79-11.15 107.34-14.05 108.89-16.95 111.51-18.68 114.14-20.4 117.29-20.4L117.29-20.4Q120.29-20.4 122.09-18.93 123.89-17.45 123.89-15L123.89-15Q123.89-13.05 122.69-11.4 121.49-9.75 119.49-8.78 117.49-7.8 115.04-7.8L115.04-7.8Q112.04-7.8 110.14-9.15L110.14-9.15Q110.19-6.85 111.71-5.45 113.24-4.05 115.64-4.05L115.64-4.05Q117.09-4.05 118.61-4.58 120.14-5.1 121.24-6L121.24-6Q121.94-6.6 122.54-6.6L122.54-6.6Q123.04-6.6 123.36-6.28 123.69-5.95 123.69-5.45L123.69-5.45Q123.69-4.35 121.79-2.55L121.79-2.55Q118.44 0.65 113.84 0.65ZM114.59-11.1L114.59-11.1Q116.39-11.1 117.59-11.85 118.79-12.6 118.79-13.75L118.79-13.75Q118.79-14.7 117.99-15.23 117.19-15.75 115.79-15.75L115.79-15.75Q113.94-15.75 112.56-14.78 111.19-13.8 110.59-12.05L110.59-12.05Q111.29-11.6 112.39-11.35 113.49-11.1 114.59-11.1ZM135.04 0.65L135.04 0.65Q131.99 0.65 130.66-1.38 129.34-3.4 129.34-6.6L129.34-6.6Q129.34-7.75 129.46-8.85 129.59-9.95 129.74-11.05L129.74-11.05Q129.89-12.15 130.04-13.2 130.19-14.25 130.29-15.2L130.29-15.2Q129.24-14.9 128.19-14.9L128.19-14.9Q127.09-14.9 127.09-15.8L127.09-15.8Q127.09-16.75 127.94-18.13 128.79-19.5 130.06-20.85 131.34-22.2 132.61-23.13 133.89-24.05 134.79-24.05L134.79-24.05Q135.89-24.05 135.89-22.15L135.89-22.15Q135.89-21.65 135.81-21.13 135.74-20.6 135.64-20.05L135.64-20.05Q136.59-20.25 137.56-20.4 138.54-20.55 139.44-20.55L139.44-20.55Q140.59-20.55 141.21-20.15 141.84-19.75 141.84-18.6L141.84-18.6Q141.84-17.4 141.26-16.2 140.69-15 139.99-15L139.99-15Q139.84-15 139.49-15.05 139.14-15.1 138.64-15.2L138.64-15.2Q137.99-15.35 136.99-15.5 135.99-15.65 134.59-15.65L134.59-15.65Q134.24-14.1 133.96-12.48 133.69-10.85 133.69-9.55L133.69-9.55Q133.69-6.65 135.14-5.6 136.59-4.55 139.34-4.55L139.34-4.55Q140.19-4.55 140.54-4.28 140.89-4 140.89-3.3L140.89-3.3Q140.89-1.65 139.19-0.5 137.49 0.65 135.04 0.65ZM164.18 0.65L164.18 0.65Q161.18 0.65 159.36-1.23 157.53-3.1 157.53-6.6L157.53-6.6Q157.53-9.1 158.51-11.58 159.48-14.05 161.33-16.05 163.18-18.05 165.78-19.25 168.38-20.45 171.63-20.45L171.63-20.45Q174.63-20.45 176.76-19.43 178.88-18.4 178.88-16.65L178.88-16.65Q178.88-16.2 178.78-15.48 178.68-14.75 178.53-14.3L178.53-14.3Q178.38-13.9 178.11-13.58 177.83-13.25 177.38-13.25L177.38-13.25Q177.18-13.25 176.63-13.4L176.63-13.4Q176.43-12.35 176.33-11.35 176.23-10.35 176.23-9.35L176.23-9.35Q176.23-7.45 176.81-5.98 177.38-4.5 179.08-4.15L179.08-4.15Q179.53-4.05 179.81-3.85 180.08-3.65 180.08-3L180.08-3Q180.08-2.45 179.81-1.6 179.53-0.75 178.76-0.08 177.98 0.6 176.53 0.6L176.53 0.6Q174.58 0.6 173.53-0.83 172.48-2.25 172.48-4.9L172.48-4.9Q171.13-2.45 169.06-0.9 166.98 0.65 164.18 0.65ZM165.78-4.55L165.78-4.55Q167.78-4.55 169.31-5.8 170.83-7.05 171.68-8.95L171.68-8.95Q172.23-10.15 172.53-11.58 172.83-13 172.93-14.4L172.93-14.4Q172.08-14.8 170.98-15.05 169.88-15.3 168.68-15.3L168.68-15.3Q165.63-15.3 163.66-13.5 161.68-11.7 161.68-9L161.68-9Q161.68-7 162.78-5.78 163.88-4.55 165.78-4.55ZM203.98 0.65L203.98 0.65Q200.93 0.65 199.6-1.38 198.28-3.4 198.28-6.6L198.28-6.6Q198.28-7.75 198.4-8.85 198.53-9.95 198.68-11.05L198.68-11.05Q198.83-12.15 198.98-13.2 199.13-14.25 199.23-15.2L199.23-15.2Q198.18-14.9 197.13-14.9L197.13-14.9Q196.03-14.9 196.03-15.8L196.03-15.8Q196.03-16.75 196.88-18.13 197.73-19.5 199-20.85 200.28-22.2 201.55-23.13 202.83-24.05 203.73-24.05L203.73-24.05Q204.83-24.05 204.83-22.15L204.83-22.15Q204.83-21.65 204.75-21.13 204.68-20.6 204.58-20.05L204.58-20.05Q205.53-20.25 206.5-20.4 207.48-20.55 208.38-20.55L208.38-20.55Q209.53-20.55 210.15-20.15 210.78-19.75 210.78-18.6L210.78-18.6Q210.78-17.4 210.2-16.2 209.63-15 208.93-15L208.93-15Q208.78-15 208.43-15.05 208.08-15.1 207.58-15.2L207.58-15.2Q206.93-15.35 205.93-15.5 204.93-15.65 203.53-15.65L203.53-15.65Q203.18-14.1 202.9-12.48 202.63-10.85 202.63-9.55L202.63-9.55Q202.63-6.65 204.08-5.6 205.53-4.55 208.28-4.55L208.28-4.55Q209.13-4.55 209.48-4.28 209.83-4 209.83-3.3L209.83-3.3Q209.83-1.65 208.13-0.5 206.43 0.65 203.98 0.65ZM217.62-24.85L217.62-24.85Q216.22-24.9 215.37-25.7 214.52-26.5 214.52-27.95L214.52-27.95Q214.57-29.5 215.57-30.48 216.57-31.45 218.12-31.4L218.12-31.4Q219.57-31.35 220.4-30.55 221.22-29.75 221.17-28.3L221.17-28.3Q221.12-26.8 220.17-25.83 219.22-24.85 217.62-24.85ZM217.67 0.5L217.67 0.5Q216.17 0.5 215.32-0.33 214.47-1.15 214.47-3.15L214.47-3.15Q214.47-4.3 214.7-5.4 214.92-6.5 215.22-7.55L215.22-7.55Q215.57-8.65 215.8-9.8 216.02-10.95 216.02-12.25L216.02-12.25Q216.02-13.15 215.77-13.98 215.52-14.8 214.67-15.2L214.67-15.2Q214.02-15.55 213.55-15.93 213.07-16.3 213.07-16.9L213.07-16.9Q213.07-17.6 213.72-18.4 214.37-19.2 215.45-19.78 216.52-20.35 217.67-20.35L217.67-20.35Q218.92-20.35 219.5-19.7 220.07-19.05 220.27-18.05 220.47-17.05 220.47-16L220.47-16Q220.47-14.4 220.22-12.88 219.97-11.35 219.72-10.05L219.72-10.05Q219.52-9.1 219.42-8.3 219.32-7.5 219.32-6.8L219.32-6.8Q219.32-5.55 219.92-4.93 220.52-4.3 221.62-3.75L221.62-3.75Q222.07-3.5 222.07-3L222.07-3Q222.07-2.6 221.67-1.75 221.27-0.9 220.3-0.2 219.32 0.5 217.67 0.5ZM233.07 0.65L233.07 0.65Q229.57 0.65 227.6-1.48 225.62-3.6 225.62-7.4L225.62-7.4Q225.62-11.15 227.22-14.1 228.82-17.05 231.62-18.75 234.42-20.45 237.97-20.45L237.97-20.45Q240.37-20.45 241.77-19.65 243.17-18.85 243.17-17.45L243.17-17.45Q243.17-16.2 241.97-15L241.97-15Q241.52-14.55 240.8-14.18 240.07-13.8 239.67-13.8L239.67-13.8Q239.22-13.8 238.92-14.15L238.92-14.15Q238.42-14.7 237.62-15.2 236.82-15.7 235.37-15.7L235.37-15.7Q232.92-15.7 231.37-14.03 229.82-12.35 229.82-9.65L229.82-9.65Q229.82-7.2 231.22-5.7 232.62-4.2 234.92-4.2L234.92-4.2Q236.12-4.2 237.55-4.63 238.97-5.05 240.07-5.85L240.07-5.85Q240.62-6.35 241.22-6.35L241.22-6.35Q242.22-6.35 242.22-5.1L242.22-5.1Q242.22-3.45 240.57-1.95L240.57-1.95Q239.32-0.8 237.25-0.08 235.17 0.65 233.07 0.65ZM247.72 0.55L247.72 0.55Q247.17 0.55 246.67 0.23 246.17-0.1 246.27-0.65L246.27-0.65Q247.02-4.65 247.54-8.78 248.07-12.9 248.07-17.1L248.07-17.1Q248.07-20.8 247.82-23.8 247.57-26.8 246.22-29.55L246.22-29.55Q245.97-30.1 245.82-30.5 245.67-30.9 245.67-31.25L245.67-31.25Q245.67-32.2 246.77-33.1 247.87-34 249.12-34L249.12-34Q250.92-34 251.57-31.8 252.22-29.6 252.22-25.3L252.22-25.3Q252.22-20.15 251.62-16.32 251.02-12.5 250.57-10.5L250.57-10.5 250.77-10.4Q251.77-12.85 253.32-15.13 254.87-17.4 256.89-18.9 258.92-20.4 261.32-20.4L261.32-20.4Q263.67-20.4 264.94-19 266.22-17.6 266.22-15.65L266.22-15.65Q266.22-13.35 264.57-11.55 262.92-9.75 260.27-8.55L260.27-8.55Q260.92-6.85 262.12-5.88 263.32-4.9 265.17-4.9L265.17-4.9Q265.77-4.9 266.17-5L266.17-5Q266.82-5.15 266.82-3.75L266.82-3.75Q266.82-2.95 266.52-1.95 266.22-0.95 265.34-0.23 264.47 0.5 262.72 0.5L262.72 0.5Q260.37 0.5 258.89-0.88 257.42-2.25 256.59-4.28 255.77-6.3 255.32-8.3L255.32-8.3Q254.92-10.15 256.57-10.25L256.57-10.25Q258.32-10.45 259.52-11.3 260.72-12.15 260.72-13.55L260.72-13.55Q260.72-15.15 259.17-15.15L259.17-15.15Q258.17-15.15 257.14-14.43 256.12-13.7 255.24-12.7 254.37-11.7 253.82-10.75L253.82-10.75Q253.07-9.45 252.52-8.2 251.97-6.95 251.62-5.7L251.62-5.7 251.62-3.7Q251.62-1.85 250.54-0.65 249.47 0.55 247.72 0.55ZM278.17 0.65L278.17 0.65Q274.37 0.65 272.24-1.53 270.12-3.7 270.12-7.6L270.12-7.6Q270.12-11.15 271.67-14.05 273.22-16.95 275.84-18.68 278.47-20.4 281.62-20.4L281.62-20.4Q284.62-20.4 286.42-18.93 288.22-17.45 288.22-15L288.22-15Q288.22-13.05 287.02-11.4 285.81-9.75 283.81-8.78 281.81-7.8 279.37-7.8L279.37-7.8Q276.37-7.8 274.47-9.15L274.47-9.15Q274.52-6.85 276.04-5.45 277.56-4.05 279.97-4.05L279.97-4.05Q281.42-4.05 282.94-4.58 284.47-5.1 285.56-6L285.56-6Q286.27-6.6 286.87-6.6L286.87-6.6Q287.37-6.6 287.69-6.28 288.02-5.95 288.02-5.45L288.02-5.45Q288.02-4.35 286.12-2.55L286.12-2.55Q282.77 0.65 278.17 0.65ZM278.92-11.1L278.92-11.1Q280.72-11.1 281.92-11.85 283.12-12.6 283.12-13.75L283.12-13.75Q283.12-14.7 282.31-15.23 281.52-15.75 280.12-15.75L280.12-15.75Q278.27-15.75 276.89-14.78 275.52-13.8 274.92-12.05L274.92-12.05Q275.62-11.6 276.72-11.35 277.81-11.1 278.92-11.1ZM299.36 0.65L299.36 0.65Q296.31 0.65 294.99-1.38 293.66-3.4 293.66-6.6L293.66-6.6Q293.66-7.75 293.79-8.85 293.91-9.95 294.06-11.05L294.06-11.05Q294.21-12.15 294.36-13.2 294.51-14.25 294.61-15.2L294.61-15.2Q293.56-14.9 292.51-14.9L292.51-14.9Q291.41-14.9 291.41-15.8L291.41-15.8Q291.41-16.75 292.26-18.13 293.11-19.5 294.39-20.85 295.66-22.2 296.94-23.13 298.21-24.05 299.11-24.05L299.11-24.05Q300.21-24.05 300.21-22.15L300.21-22.15Q300.21-21.65 300.14-21.13 300.06-20.6 299.96-20.05L299.96-20.05Q300.91-20.25 301.89-20.4 302.86-20.55 303.76-20.55L303.76-20.55Q304.91-20.55 305.54-20.15 306.16-19.75 306.16-18.6L306.16-18.6Q306.16-17.4 305.59-16.2 305.01-15 304.31-15L304.31-15Q304.16-15 303.81-15.05 303.46-15.1 302.96-15.2L302.96-15.2Q302.31-15.35 301.31-15.5 300.31-15.65 298.91-15.65L298.91-15.65Q298.56-14.1 298.29-12.48 298.01-10.85 298.01-9.55L298.01-9.55Q298.01-6.65 299.46-5.6 300.91-4.55 303.66-4.55L303.66-4.55Q304.51-4.55 304.86-4.28 305.21-4 305.21-3.3L305.21-3.3Q305.21-1.65 303.51-0.5 301.81 0.65 299.36 0.65ZM325.26 9.6L325.26 9.6Q324.31 9.6 323.81 9.13 323.31 8.65 323.36 7.4L323.36 7.4Q323.36 6.65 323.48 4.73 323.61 2.8 323.83 0.18 324.06-2.45 324.33-5.3 324.61-8.15 324.86-10.8 325.11-13.45 325.31-15.35L325.31-15.35Q324.81-15.3 324.36-15.28 323.91-15.25 323.46-15.15L323.46-15.15Q322.96-15.05 322.71-15.05L322.71-15.05Q322.11-15.05 321.91-15.78 321.71-16.5 321.71-17.15L321.71-17.15Q321.71-17.9 321.93-18.4 322.16-18.9 322.91-19.2L322.91-19.2Q323.36-19.4 324.08-19.55 324.81-19.7 325.61-19.8L325.61-19.8Q325.86-22.75 326.38-25.4 326.91-28.05 328.01-29.9L328.01-29.9Q329.16-31.8 331.13-32.9 333.11-34 335.16-34L335.16-34Q336.66-34 337.98-33.43 339.31-32.85 340.13-31.83 340.96-30.8 340.96-29.5L340.96-29.5Q340.96-28.55 340.48-27.95 340.01-27.35 339.41-27.35L339.41-27.35Q339.16-27.35 338.86-27.45 338.56-27.55 338.26-27.65L338.26-27.65Q337.71-27.9 336.88-28.08 336.06-28.25 335.11-28.25L335.11-28.25Q333.16-28.25 332.03-27.2 330.91-26.15 330.33-24.33 329.76-22.5 329.41-20.1L329.41-20.1Q330.46-20.2 331.66-20.3 332.86-20.4 333.61-20.4L333.61-20.4Q334.81-20.4 335.48-20.03 336.16-19.65 336.16-18.6L336.16-18.6Q336.16-17.95 335.93-17.07 335.71-16.2 335.26-15.53 334.81-14.85 334.21-14.85L334.21-14.85Q333.96-14.85 333.36-15L333.36-15Q332.71-15.1 331.66-15.25 330.61-15.4 329.01-15.45L329.01-15.45Q328.81-13.3 328.68-10.68 328.56-8.05 328.56-5.15L328.56-5.15Q328.56-2 328.76 0.3 328.96 2.6 329.16 4.05L329.16 4.05Q329.26 4.7 329.31 5.2 329.36 5.7 329.36 6L329.36 6Q329.36 7.45 328.66 8.22 327.96 9 327.01 9.3 326.06 9.6 325.26 9.6ZM345.51 0.65L345.51 0.65Q342.06 0.65 339.98-1.23 337.91-3.1 337.91-6.75L337.91-6.75Q337.91-8.45 338.38-10.05 338.86-11.65 339.66-13.05L339.66-13.05Q338.86-12.55 338.46-12.55L338.46-12.55Q337.86-12.55 337.63-13.23 337.41-13.9 337.41-14.55L337.41-14.55Q337.41-15.7 337.88-16.38 338.36-17.05 338.81-17.4L338.81-17.4Q339.86-18.3 342.11-19.38 344.36-20.45 347.51-20.45L347.51-20.45Q351.81-20.45 354.18-18.05 356.56-15.65 356.56-11.35L356.56-11.35Q356.56-8 355.16-5.28 353.76-2.55 351.28-0.95 348.81 0.65 345.51 0.65ZM347.06-4.45L347.06-4.45Q349.56-4.45 351.28-6.03 353.01-7.6 353.01-10.2L353.01-10.2Q353.01-12.9 351.26-14.05 349.51-15.2 347.21-15.2L347.21-15.2Q346.16-15.2 345.31-15 344.46-14.8 343.71-14.5L343.71-14.5Q343.01-13.5 342.46-12.25 341.91-11 341.91-9.5L341.91-9.5Q341.91-7 343.41-5.73 344.91-4.45 347.06-4.45ZM363.4 0.55L363.4 0.55Q362.6 0.55 362.13 0.28 361.65 0 361.8-0.65L361.8-0.65Q362.35-2.8 362.73-5.03 363.1-7.25 363.1-9.3L363.1-9.3Q363.1-11.95 362.78-13.18 362.45-14.4 361.9-14.88 361.35-15.35 360.55-15.6L360.55-15.6Q360.2-15.75 359.93-16 359.65-16.25 359.65-16.7L359.65-16.7Q359.65-17.4 360.2-18.25 360.75-19.1 361.75-19.73 362.75-20.35 364.05-20.35L364.05-20.35Q365.75-20.35 366.43-19.18 367.1-18 367.1-16.1L367.1-16.1Q368-18.1 369.33-19.28 370.65-20.45 372.65-20.45L372.65-20.45Q374-20.45 374.9-19.85 375.8-19.25 375.8-17.9L375.8-17.9Q375.8-16.55 374.93-15.38 374.05-14.2 373.15-14.2L373.15-14.2Q373-14.2 372.8-14.25 372.6-14.3 372.45-14.5L372.45-14.5Q371.8-15.3 370.85-15.3L370.85-15.3Q369.4-15.3 368.3-13.4 367.2-11.5 367.1-8.15L367.1-8.15Q367.15-6.9 367.18-5.6 367.2-4.3 367.2-3.7L367.2-3.7Q367.2-1.85 366.18-0.65 365.15 0.55 363.4 0.55ZM390.8 13.8L390.8 13.8Q388.75 13.8 387.27 12.7 385.8 11.6 385.8 9.75L385.8 9.75Q385.8 8.3 386.67 7.28 387.55 6.25 388.85 6.25L388.85 6.25Q389.45 6.25 389.7 6.45 389.95 6.65 390.1 6.9L390.1 6.9Q390.5 7.55 391.02 8.03 391.55 8.5 392.45 8.5L392.45 8.5Q393.65 8.5 394.77 7.65 395.9 6.8 396.85 5.7L396.85 5.7Q397.7 4.75 398.9 2.98 400.1 1.2 401.3-1.05L401.3-1.05Q400.2-0.1 399.25 0.33 398.3 0.75 397.45 0.75L397.45 0.75Q396.4 0.75 395.4-0.03 394.4-0.8 394.15-2.95L394.15-2.95Q394-4.6 393.57-6.6 393.15-8.6 392.52-10.48 391.9-12.35 391-13.65L391-13.65Q390.65-14.25 390.2-14.55 389.75-14.85 388.9-14.95L388.9-14.95Q388.3-15 388.12-15.3 387.95-15.6 387.95-16.25L387.95-16.25Q387.95-18.05 388.95-19.15 389.95-20.25 391.65-20.25L391.65-20.25Q393.7-20.25 394.6-18.68 395.5-17.1 396.15-14.85L396.15-14.85Q396.4-13.95 396.67-12.48 396.95-11 397.17-9.3 397.4-7.6 397.5-6.05L397.5-6.05Q397.55-4.95 398.75-4.95L398.75-4.95Q400.35-4.95 401.8-5.95 403.25-6.95 404.17-8.55 405.1-10.15 405.1-11.9L405.1-11.9Q405.1-12.9 404.85-13.7 404.6-14.5 404-15.1L404-15.1Q403.5-15.7 403.2-16.07 402.9-16.45 402.9-16.95L402.9-16.95Q402.9-17.8 403.7-18.55 404.5-19.3 405.62-19.8 406.75-20.3 407.6-20.3L407.6-20.3Q409.1-20.3 409.6-18.88 410.1-17.45 409.85-15.75L409.85-15.75Q409.55-13.4 408.65-10.2 407.75-7 406.32-3.5 404.9 0 403.07 3.28 401.25 6.55 399.2 9L399.2 9Q397.45 11.15 395.3 12.48 393.15 13.8 390.8 13.8ZM421.45 0.65L421.45 0.65Q418 0.65 415.92-1.23 413.85-3.1 413.85-6.75L413.85-6.75Q413.85-8.45 414.32-10.05 414.8-11.65 415.6-13.05L415.6-13.05Q414.8-12.55 414.4-12.55L414.4-12.55Q413.8-12.55 413.57-13.23 413.35-13.9 413.35-14.55L413.35-14.55Q413.35-15.7 413.82-16.38 414.3-17.05 414.75-17.4L414.75-17.4Q415.8-18.3 418.05-19.38 420.3-20.45 423.45-20.45L423.45-20.45Q427.75-20.45 430.12-18.05 432.5-15.65 432.5-11.35L432.5-11.35Q432.5-8 431.1-5.28 429.7-2.55 427.22-0.95 424.75 0.65 421.45 0.65ZM423-4.45L423-4.45Q425.5-4.45 427.22-6.03 428.95-7.6 428.95-10.2L428.95-10.2Q428.95-12.9 427.2-14.05 425.45-15.2 423.15-15.2L423.15-15.2Q422.1-15.2 421.25-15 420.4-14.8 419.65-14.5L419.65-14.5Q418.95-13.5 418.4-12.25 417.85-11 417.85-9.5L417.85-9.5Q417.85-7 419.35-5.73 420.85-4.45 423-4.45ZM442.59 0.65L442.59 0.65Q440.09 0.65 438.72-0.8 437.34-2.25 437.34-5L437.34-5Q437.34-6.95 437.89-9L437.89-9Q438.14-9.85 438.29-10.7 438.44-11.55 438.44-12.4L438.44-12.4Q438.44-14.6 437.09-15.25L437.09-15.25Q435.79-15.95 435.79-16.75L435.79-16.75Q435.79-17.55 436.47-18.35 437.14-19.15 438.14-19.68 439.14-20.2 440.14-20.2L440.14-20.2Q442.99-20.2 442.99-15.55L442.99-15.55Q442.99-14.05 442.77-12.78 442.54-11.5 442.24-10.35L442.24-10.35Q442.04-9.55 441.92-8.75 441.79-7.95 441.79-7.35L441.79-7.35Q441.79-4.85 444.24-4.85L444.24-4.85Q446.54-4.85 448.54-7.3 450.54-9.75 451.84-14.15L451.84-14.15 451.79-15.1Q451.69-17.6 452.67-18.9 453.64-20.2 455.54-20.2L455.54-20.2Q457.19-20.2 457.19-19.15L457.19-19.15Q457.19-18.8 457.07-18.25 456.94-17.7 456.69-16.95L456.69-16.95Q456.19-15.1 455.84-13.03 455.49-10.95 455.49-9.2L455.49-9.2Q455.49-7.25 456.09-5.98 456.69-4.7 458.34-4.25L458.34-4.25Q458.79-4.2 459.07-3.98 459.34-3.75 459.34-3.05L459.34-3.05Q459.34-1.85 458.34-0.7 457.34 0.45 455.44 0.45L455.44 0.45Q451.79 0.45 451.79-4.7L451.79-4.7Q451.79-5.6 451.94-7.4L451.94-7.4 451.84-7.45Q448.69 0.65 442.59 0.65ZM465.19 0.55L465.19 0.55Q464.39 0.55 463.92 0.28 463.44 0 463.59-0.65L463.59-0.65Q464.14-2.8 464.52-5.03 464.89-7.25 464.89-9.3L464.89-9.3Q464.89-11.95 464.57-13.18 464.24-14.4 463.69-14.88 463.14-15.35 462.34-15.6L462.34-15.6Q461.99-15.75 461.72-16 461.44-16.25 461.44-16.7L461.44-16.7Q461.44-17.4 461.99-18.25 462.54-19.1 463.54-19.73 464.54-20.35 465.84-20.35L465.84-20.35Q467.54-20.35 468.22-19.18 468.89-18 468.89-16.1L468.89-16.1Q469.79-18.1 471.12-19.28 472.44-20.45 474.44-20.45L474.44-20.45Q475.79-20.45 476.69-19.85 477.59-19.25 477.59-17.9L477.59-17.9Q477.59-16.55 476.72-15.38 475.84-14.2 474.94-14.2L474.94-14.2Q474.79-14.2 474.59-14.25 474.39-14.3 474.24-14.5L474.24-14.5Q473.59-15.3 472.64-15.3L472.64-15.3Q471.19-15.3 470.09-13.4 468.99-11.5 468.89-8.15L468.89-8.15Q468.94-6.9 468.97-5.6 468.99-4.3 468.99-3.7L468.99-3.7Q468.99-1.85 467.97-0.65 466.94 0.55 465.19 0.55ZM485.29 0.65L485.29 0.65Q483.44 0.65 481.84 0.1 480.24-0.45 479.24-1.45 478.24-2.45 478.24-3.85L478.24-3.85Q478.24-4.6 478.61-5.28 478.99-5.95 479.84-5.95L479.84-5.95Q480.29-5.95 480.79-5.7L480.79-5.7Q481.69-5.2 483.09-4.78 484.49-4.35 486.04-4.35L486.04-4.35Q487.79-4.35 489.14-4.85 490.49-5.35 490.49-6.25L490.49-6.25Q490.49-6.95 489.46-7.25 488.44-7.55 486.04-7.9L486.04-7.9Q484.39-8.2 482.84-8.6 481.29-9 480.29-9.98 479.29-10.95 479.29-12.85L479.29-12.85Q479.29-14.7 480.31-16.43 481.34-18.15 483.39-19.3 485.44-20.45 488.39-20.45L488.39-20.45Q489.94-20.45 491.39-20.1 492.84-19.75 493.79-19.05 494.74-18.35 494.74-17.3L494.74-17.3Q494.74-16.4 494.11-15.65 493.49-14.9 492.66-14.43 491.84-13.95 491.29-13.95L491.29-13.95Q490.89-13.95 490.34-14.5L490.34-14.5Q489.49-15.2 488.46-15.48 487.44-15.75 486.44-15.75L486.44-15.75Q484.94-15.75 484.01-15.3 483.09-14.85 483.09-14.15L483.09-14.15Q483.09-13.5 483.86-13.1 484.64-12.7 485.79-12.53 486.94-12.35 487.99-12.2L487.99-12.2Q490.89-11.8 492.59-10.83 494.29-9.85 494.29-7.4L494.29-7.4Q494.29-5.5 493.21-3.63 492.14-1.75 490.11-0.55 488.09 0.65 485.29 0.65ZM506.44 0.65L506.44 0.65Q502.64 0.65 500.51-1.53 498.39-3.7 498.39-7.6L498.39-7.6Q498.39-11.15 499.94-14.05 501.49-16.95 504.11-18.68 506.74-20.4 509.89-20.4L509.89-20.4Q512.89-20.4 514.69-18.93 516.49-17.45 516.49-15L516.49-15Q516.49-13.05 515.29-11.4 514.09-9.75 512.09-8.78 510.09-7.8 507.64-7.8L507.64-7.8Q504.64-7.8 502.74-9.15L502.74-9.15Q502.79-6.85 504.31-5.45 505.84-4.05 508.24-4.05L508.24-4.05Q509.69-4.05 511.21-4.58 512.74-5.1 513.84-6L513.84-6Q514.54-6.6 515.14-6.6L515.14-6.6Q515.64-6.6 515.96-6.28 516.29-5.95 516.29-5.45L516.29-5.45Q516.29-4.35 514.39-2.55L514.39-2.55Q511.04 0.65 506.44 0.65ZM507.19-11.1L507.19-11.1Q508.99-11.1 510.19-11.85 511.39-12.6 511.39-13.75L511.39-13.75Q511.39-14.7 510.59-15.23 509.79-15.75 508.39-15.75L508.39-15.75Q506.54-15.75 505.16-14.78 503.79-13.8 503.19-12.05L503.19-12.05Q503.89-11.6 504.99-11.35 506.09-11.1 507.19-11.1ZM523.63 0.5L523.63 0.5Q522.18 0.5 521.48-0.3 520.78-1.1 520.78-3.1L520.78-3.1Q520.78-4.05 520.93-5.55 521.08-7.05 521.28-8.8L521.28-8.8Q521.58-10.95 521.81-13.3 522.03-15.65 522.03-17.8L522.03-17.8Q522.03-20.85 521.76-24.13 521.48-27.4 520.23-29.85L520.23-29.85Q519.78-30.85 519.78-31.3L519.78-31.3Q519.78-31.95 520.36-32.55 520.93-33.15 521.78-33.58 522.63-34 523.43-34L523.43-34Q524.73-34 525.38-32.83 526.03-31.65 526.23-29.63 526.43-27.6 526.43-25L526.43-25Q526.43-21.05 526.11-18.15 525.78-15.25 525.48-13.05L525.48-13.05Q525.28-11.6 525.11-10.3 524.93-9 524.93-7.95L524.93-7.95Q524.93-6.2 525.51-5.43 526.08-4.65 527.38-3.9L527.38-3.9Q527.73-3.7 527.91-3.53 528.08-3.35 528.08-3L528.08-3Q528.08-2.6 527.68-1.75 527.28-0.9 526.31-0.2 525.33 0.5 523.63 0.5ZM534.28 9.6L534.28 9.6Q533.33 9.6 532.83 9.13 532.33 8.65 532.38 7.4L532.38 7.4Q532.38 6.65 532.5 4.73 532.63 2.8 532.85 0.18 533.08-2.45 533.35-5.3 533.63-8.15 533.88-10.8 534.13-13.45 534.33-15.35L534.33-15.35Q533.83-15.3 533.38-15.28 532.93-15.25 532.48-15.15L532.48-15.15Q531.98-15.05 531.73-15.05L531.73-15.05Q531.13-15.05 530.93-15.78 530.73-16.5 530.73-17.15L530.73-17.15Q530.73-17.9 530.95-18.4 531.18-18.9 531.93-19.2L531.93-19.2Q532.38-19.4 533.1-19.55 533.83-19.7 534.63-19.8L534.63-19.8Q534.88-22.75 535.4-25.4 535.93-28.05 537.03-29.9L537.03-29.9Q538.18-31.8 540.15-32.9 542.13-34 544.18-34L544.18-34Q545.68-34 547-33.43 548.33-32.85 549.15-31.83 549.98-30.8 549.98-29.5L549.98-29.5Q549.98-28.55 549.5-27.95 549.03-27.35 548.43-27.35L548.43-27.35Q548.18-27.35 547.88-27.45 547.58-27.55 547.28-27.65L547.28-27.65Q546.73-27.9 545.9-28.08 545.08-28.25 544.13-28.25L544.13-28.25Q542.18-28.25 541.05-27.2 539.93-26.15 539.35-24.33 538.78-22.5 538.43-20.1L538.43-20.1Q539.48-20.2 540.68-20.3 541.88-20.4 542.63-20.4L542.63-20.4Q543.83-20.4 544.5-20.03 545.18-19.65 545.18-18.6L545.18-18.6Q545.18-17.95 544.95-17.07 544.73-16.2 544.28-15.53 543.83-14.85 543.23-14.85L543.23-14.85Q542.98-14.85 542.38-15L542.38-15Q541.73-15.1 540.68-15.25 539.63-15.4 538.03-15.45L538.03-15.45Q537.83-13.3 537.7-10.68 537.58-8.05 537.58-5.15L537.58-5.15Q537.58-2 537.78 0.3 537.98 2.6 538.18 4.05L538.18 4.05Q538.28 4.7 538.33 5.2 538.38 5.7 538.38 6L538.38 6Q538.38 7.45 537.68 8.22 536.98 9 536.03 9.3 535.08 9.6 534.28 9.6Z" opacity="1" transform="matrix(1,0,0,1,0,0)" fill="#3886ce" class="slogan-text-1" data-fill-palette-color="secondary" id="text-1"></path></svg></g></svg></g></svg></g></svg></g><g></g></svg></g><defs></defs></svg><rect width="395.52" height="79.6412065797023" fill="none" stroke="none" visibility="hidden"></rect></g></svg></g></svg>